P1
41 41
11111110000101111111111010101011101111111
10000010000100000000000010100011101000001
10111010101100111110111010101010001011101
10111010000010100010101010001001101011101
10111010011110101111101011101010101011101
10000010001110101010001010101000101000001
11111110101010101010101010101010101111111
00000000101000000010001000001110000000000
11101111111100111110111010111011011000100
01101001011110001000000010101010101000000
01010011011101101011111010101010011000101
00010101010000000000100010100001101010011
01110011001111111011111010111110111011010
00000001100010000000001010100110001011101
01010011101010111111111111101001101011111
00100101000010000000101000000100010011010
11001110010011101110101110111001111001011
11111000110010100010000010101000111101011
01000110010010111010111111101110101110100
10011100111010000010000010000010101010001
10000010100011101011101111111011111111011
01100000001000101000101000001110000011101
00011010000011111111101111101001101011011
00111001111010000000001000001000000011010
00010011010011111110101110101011111001000
01011101110010100010101000100000011001010
11011111011010101111101110111110011101011
10010100110010000000001000100011000011010
01101111101011101011101011111010111011011
00110001001000001010100000100000000011011
10001011101011101010111111111011110111011
01101000110010101010000000000000110011101
10010010011010101111111110111110111111001
00000000101010001000000000001011100011111
11111110111110111111101111111011101010010
10000010100000000000101000100010100011011
10111010100011111110101110101110111110011
10111010010000101010100010001000000111100
10111010100010101010101010111110010011001
10000010110010000010001000001000000011010
11111110101110111011101011111110101101111
