P1
41 41
11111110001110111110111110101111101111111
10000010000110100010100010000001101000001
10111010101101101111101111111110001011101
10111010000000000000101000000011001011101
10111010011111101111101110111011101011101
10000010011100100010000000001000101000001
11111110101010101010101010101010101111111
00000000100010000000000000101110100000000
11101111101100101111101110101010011000100
01111101111110101000001000100010101000000
01010010100011111011111011111010011000101
10010000011010100010101010001011101010011
10000011011011101010101111101110101011010
01011101000000001010000010001100100011101
01010010000111101011101110101001101011111
01001000111000001000000010100100010011010
10101011011110111011111110111001111001011
01010100100000100010000000001000111101011
00010010110110101011101011101110111110100
11110000101000101000101000100010100010001
01111111100011111110101111111111111011011
01000100001000101000100010001100100011101
11110110101111101110111010111101101011011
11101101110000000000101010000000000011010
10101010011011111110101110101010111001000
10000101000010000010101000101010011001010
11001110110110101110101011111010011101011
10110100111010101000101000101001000011010
11011010001010101011101110101110101011011
01101101100010100000000010000000101011011
10000111101010111011111111101010110111011
01011101111000101000000000101010010011101
10001111111011101111101110111011111111001
00000000100000000000101010001011100011111
11111110101111111011111010101111101010010
10000010110010000000100010100010100011011
10111010101010111011101110111010111110011
10111010010010101000100010001010000111100
10111010100010101011101010111010010011001
10000010101010100000001010101010101011010
11111110110011101110111010101010101101111
