P1
41 41
11111110001010111010111011111011101111111
10000010010100001010101000000001101000001
10111010111010111011101110111110001011101
10111010011110000010001000000011101011101
10111010011010111111101011111011101011101
10000010010000100010001000101000001000001
11111110101010101010101010101010101111111
00000000111110000010001000101110000000000
11101111110101111010111111101011011000100
00110001010110000000000010100010101000000
00001010011100101110101110111010011000101
01001001001010100010100000000011101010011
00011110100010111011111111101110101111010
00000001000010101000100000001110100011101
10111010110010101011101011101001101111111
01111001100010100010101000101100010011010
00011011001011101110101011111000111001011
10011001010000000010001000100000111101011
10110111001111111011111111111010111110100
11101100110000000000100010000010100010001
01100011011011101111101111111111101111011
11110000110010100000100000101110000011101
01001010011010111011111010101001101111011
10001000010000001010001010001000000011010
00110010110010101110101111101110111001000
01101001100010100010100000001010011001010
10110010011011111011101010101010011101011
01000001100000100010001010100001000011010
11000010010011101110111111101110111011011
00100000100010001000101000000010000011011
10001010010111101010101011101011110111011
01010000110000100010100010101010010011101
10001011011110111111101010111110111111001
00000000111000001010101000100011100011111
11111110111011111010111011101111101010010
10000010110000100000001000101010100011011
10111010110010111110101011101010111110011
10111010010010001000100000100010000111100
10111010110011101011101110101010010011001
10000010111000100010000010101010000011010
11111110110010101111111110111010101101111
