P1
41 41
11111110000001111111101010111011101111111
10000010011000000010001000100011101000001
10111010101000111010101111101110001011101
10111010010110001010100000100011101011101
10111010010010101110111011111010101011101
10000010011000100010100000100000101000001
11111110101010101010101010101010101111111
00000000111000001000101000000110000000000
11101111111111111111101111111011011000100
11011001111100000000101000000010101000000
01010011111011111011101010111110001000101
10001001111010101010000010100001101010011
10101011111010101111101011101110101111010
00011100100000000000101010000100100011101
01001011110010111110111010111001101111111
11100000001010001000100010001100010011010
10000011001110111111101111111000111001011
10011001101010100010000010000000111101011
11110110110010101111101111111010101110100
10111100111000000000001000100010100010001
10010011011010111110111011111011101111011
10101001110010100010001000000110000011101
10011110110011101110111011111100101111011
10101000101010000000001010101000100011010
00111010011011111011111110101111111001000
11100101010000100000100010000010011001010
10010111111011111110111011111010011101011
01110000011010000000001000100001001011010
10011110001110101011101011101110111011011
00100000011000101010101000101000101011011
10100111110011101010111011111110110011011
01010100001010101010001000001000010011101
10110010011110111010111011101011111111001
00000000101000000000001000100011100011111
11111110110011101111111111111111101010010
10000010100000100000100010001000100011011
10111010101111101111111010101110111110011
10111010010000000010101000100000000111100
10111010101011111110101011111110010011001
10000010101010000010001010001000000011010
11111110100010101110101011101011111101111
