P1
41 41
11111110010001101110101010101011101111111
10000010010110100010100000101011101000001
10111010101101101010111110101110001011101
10111010001010001000100000000011001011101
10111010001100101011111010111011101011101
10000010000110101010000010000000101000001
11111110101010101010101010101010101111111
00000000100000001000101000000110000000000
11101111101010111011101110111011011000100
10111101111100001010101000001010101000000
11010111001011111110101011111010001000101
00101101101100000010100010000001101010011
10000110110010111110111110111010101111010
00011001000000001000001000100110100011101
00010010110111101110111010101000101011111
10110001010000000000101010101100010011010
11000110001110111011101010111000111001011
10001100001010100000001010100000111101011
11110011101010111110111110101110101110100
01010000111010000010100000101000100010001
11001011111011111010101011111111111111011
11111001101000001010001010100100100011101
10011111110110101110111010101001101111011
11100001001000100010100000101000100011010
01110011010110101110111111101111111001000
00000101001010100000001010101000011001010
11011110010011111110111010101110001101011
00101000101000001000101000001011000011010
01010010110011101111101010111010101011011
00000000011000100000000010000010101011011
10110110100111101011111110111010110011011
01000001111010001000000010100000010011101
10110011010011101110101011111011111111001
00000000100000001000101010100001100011111
11111110100011101110111010101111101010010
10000010100010001010001010001010100011011
10111010101010111011111011111010111110011
10111010010010000000100000001000000111100
10111010101010111110101111111010010011001
10000010111010100000101000001010001011010
11111110101011111110101110111110111101111
