P1
41 41
11111110011110111110101111101111101111111
10000010010110100010001000101001101000001
10111010110100101111101011111110001011101
10111010011000100000100000000011101011101
10111010001110111110111110111011101011101
10000010001110000000100000101000001000001
11111110101010101010101010101010101111111
00000000110110100000101000000110100000000
11101111101100111111101011111010011000100
01100101110010100010101000000010101000000
10000111100111111010111011111010011000101
11111101101100100010100000101011100010011
01100111011110101010111011101110101111010
00100100001000001000101000100110101011101
00110010001011101110101010101000101011111
11000100111010001000000010101100010011010
01100111000010111110101111101001111001011
00111000101010001010101000000000111101011
10011011001110101011101110111010111110100
10110000100000101000001000001010101010001
00000111010111111111101110101011101011011
00001100110000100010100000101110101011101
00100110101011101010111011111000101111011
10011100101000101000000010001010100011010
10110110111010111010111110111010111001000
00010101000010001010000010000010011001010
00010111010111101111111010101110001101011
01110001110010001000101010101001000011010
01010011101010101110101010101010101111011
01011101001000100000001010101010100011011
10100111101111101011111111101010110111011
01111101010000101000100000000010110011101
10010011011011111110111110111011111111001
00000000110000000010101010001001100011111
11111110100110101110101010111111101010010
10000010101000101010000010000010100011011
10111010111110111010111011111010111110011
10111010001000101000001000001000000111100
10111010101010101011111111101010010011001
10000010100010001010101000001010001011010
11111110101110101010101111101011111101111
