P1
41 41
11111110011110101110111011111111101111111
10000010011000100000001000100001101000001
10111010110100111010101011101110001011101
10111010010100000010100000101001101011101
10111010011011111111111010111011101011101
10000010000100100000001010000000001000001
11111110101010101010101010101010101111111
00000000100100101010001010000110000000000
11101111110000111010111111101010011000100
01010001010100000010001010001010101000000
10000111101110111111101010111110011000101
01110001100110101010101000000001100010011
01000110001110101010101010101010101011010
10010001111010000000100010101110101011101
01011010101110111111111110111001101011111
11111101111000001000001000100100010011010
00001110110010101011101010111001111001011
11010001110010100010101010100000111101011
01111110110111111010101010111010101110100
11011000001000100010000010100000101010001
01100111100110101111111111101111111011011
10110001011000100010101000001110101011101
00110010000110101110101111111000101011011
10100100111000000000100010000010100011010
01010011111111111110101111101010111001000
01100100010000001000001000001010011001010
01111111001010111110101010111110001101011
10001101000010000010100010100001000011010
00000011101010111011101111111110101011011
00000101000010100000100010001000101011011
10000110011010101110111011101011110011011
01111101000010101000001000001000010011101
10001111110011111010111011101011111111001
00000000111010000010000000101011100011111
11111110101010111010111011111111101010010
10000010100010100010001010000000100011011
10111010110011111011101011101110111110011
10111010011000100010001000101000000111100
10111010101111111011111110101010010011001
10000010110010000000101000001000100011010
11111110110010101111101011111010111101111
