P1
41 41
11111110001010101011111010101011101111111
10000010010100000000101010100001101000001
10111010110001101111101010111110001011101
10111010000010001010001010100011001011101
10111010000001101010101110101011101011101
10000010011000100000100000000000001000001
11111110101010101010101010101010101111111
00000000101110000000100010001110000000000
11101111111011111010101111111011011000100
00111000110110001010101010100010101000000
11010111000100101111101010111010011000101
00010000101000100010001010001011101010011
01100110100011111010101010111010101011010
10100000000010001000100010000100000011101
01001011000011101110111011111000101011111
01000000010010101000001000101100110011010
00101011010110101011111110101001111001011
00110000011010000010101010000000111101011
01011011001010111110101011111110111110100
00100001110000000000000000101000100010001
10111111011011111110101111101111111011011
10110000111000101010100000001100000011101
01100011001010101010101110111101101011011
10010001111010001010101000001000100011010
11011011011111101010111111111010111001000
11111100110000001010000000000010011001010
00100110111111101011111111111110001101011
11110101001010001000000010001011001011010
00001011001010111111111011101010101011011
01110001011000100010101000100000100011011
10110111000111101110101011111011110011011
01001000101000000010100000001000010011101
10101111000110111010111010101111111111001
00000000100000001000000010100011100011111
11111110111110101111101110101011101010010
10000010110000101000101010101000100011011
10111010110110101010101011101110111110011
10111010011000101010000010100010000111100
10111010100011101110111010101010010011001
10000010100000101000100010101010001011010
11111110101111101010111010101111111101111
