P1
41 41
11111110000101111110101011111111101111111
10000010010000000000100000100001101000001
10111010110001111011111011111010001011101
10111010001010000010000010101001101011101
10111010011110111111101110101010101011101
10000010001010000010100000000000101000001
11111110101010101010101010101010101111111
00000000111110101000101000101110000000000
11101111100010111110101011111010011000100
01101001001100000010001000100010101000000
01101010011001111110111010111010011000101
01010000000110000000001010001001100010011
11000110010111101111111011101010101111010
11011001101000100010000010100110000011101
00101111110011101111101110111001101011111
10011000101010000010000000100100010011010
11011011000110111110111011101000111001011
10011101100000001010100010001000111101011
01001111001111111011101111101010101110100
01111100110000000000001000101010100010001
01100111010011101111101110101111101011011
01011000000000100000101000101110101011101
01110011010011101111101110101000101111011
01111001001010000000100010001000100011010
10000010010111111011101111111110111001000
10000101011010101000100000000010011001010
10100111001010101110111011111110011101011
01100000101000000010100010000001001011010
10110010011110101010111011111010101011011
01000001001010101010001000100010100011011
10010010010010111110111110101010110111011
01011101110000100000000010001000010011101
10111010100010101110111111111111111111001
00000000110010101000000010100001100011111
11111110110011111011111010101011101010010
10000010100000000010001000001010100011011
10111010100110111010111110111010111110011
10111010010010101010000010001000000111100
10111010110010101011101110111010010011001
10000010110000001000000010100010100011010
11111110100110111110101110111110111101111
