P1
41 41
11111110001000101110101011101111101111111
10000010010010000010000010000011101000001
10111010100011111110111011111010001011101
10111010010100000010101000001001001011101
10111010011111111111101110111011101011101
10000010010100000000000010000000001000001
11111110101010101010101010101010101111111
00000000101010001010100000101110100000000
11101111111010111011111111111011011000100
00110101011110001000001000101010101000000
11000110010000111011111011101010011000101
00110001110010001010001000000011100010011
11011010010111101011101010111110111011010
01001101101010100010000010000110000011101
11110111110010111010111110101000101011111
01011001011000001010100000101100010011010
01001110001110101011101111111001111001011
00001001000000101000001000100000111101011
00101011110111101111111110101110101110100
00000100000000001000100000000010100010001
00111111011110111011111111101111111011011
11100000000000001000000000100110001011101
10000010011110101011111011101101101011011
10100101110000101010000010000000000011010
01100010101111111011111111101110111001000
11110101110000000010001010001010011001010
10110010010111111011101010111010011101011
01100101010000100000000010000011001011010
01100110111110111010111111101110101011011
00100101100000100010000000100000100011011
10100010011110111011111110111010110011011
01111001001010100010001000000010110011101
10001110110010101010111011111011111111001
00000000101010001000101010001011100011111
11111110100010111011101010111011101010010
10000010101000001000101000100000100011011
10111010100010111011101111101110111110011
10111010011010001010001000000010000111100
10111010111110111011101111111010010011001
10000010100010100000001000001010100011010
11111110110011101111101010111110111101111
