P1
41 41
11111110011101111010101111101111101111111
10000010010000100010101000000011101000001
10111010110011111010111110111010001011101
10111010000100100010100010001001101011101
10111010001000111011101010101010101011101
10000010010000101000001000101000101000001
11111110101010101010101010101010101111111
00000000101100100000100000101110000000000
11101111100010111110111110111011011000100
00011100100100101000100010100010101000000
01011011010110101011111010101110011000101
10010000110010000010000010001011100010011
11010110000111111010111011101010111011010
00011100001010100010001010001100100011101
01111011011010101010101011111000101111111
01000100110000001010101000000100110011010
10000010101010101111101111111001111001011
01111101010010101000100010000000111101011
10011111011110101011111011101110111110100
11101001011000100010100010101010101010001
11000111010011101110101110101011111011011
10111001101010101010101010000100100011101
00111110110110111010101010111001101011011
01010101000000001000100000001010000011010
00110010110111101011111111101110111001000
11100100111010000000100010100010011001010
10110010111011111010111010101010011101011
10011000011000101010101010101001001011010
01100011010110101010101010111010101111011
01101100001010100010100000000000100011011
10000011100010111010111111101010110111011
01010000110010100010100010001010110011101
10110111101010101111101011111111111111001
00000000111010001000101000101001100011111
11111110110010111011111010101111101010010
10000010111000001000000010000010100011011
10111010100011111111111111101110111110011
10111010011010000010001000001010000111100
10111010111010101010101011101010010011001
10000010101000101000100000101000001011010
11111110110111111011101110101111101101111
