P1
41 41
11111110000110111110111110111111101111111
10000010011000000000000010001011101000001
10111010110011111111101110111010001011101
10111010010010100010100000100011101011101
10111010000010101110101111101010101011101
10000010001010101010000000000000101000001
11111110101010101010101010101010101111111
00000000110100001010001000100110000000000
11101111110111111011111110111010011000100
00111101011110000010000000001010101000000
01011111001111111010111010111010001000101
11011000111010001000101010100001101010011
11000111110011111010101110111110111011010
00100001100000000010100010000100001011101
00101111101110101110101110111001101011111
00001001010010101010101000000100010011010
11100110100011101011101110111001111001011
11110101101000001000001000100000111101011
11101111101110101010101110111010101110100
10000001011000101010100000100010101010001
10101111111011101011111110101111101111011
10001001011010001000001000101110100011101
00110011000011111111111011101000101111011
01111001111000100010000010001000100011010
00101110100011101111111111101011111001000
10001000100000000010100010001000011001010
00000010111011111110101111101110011101011
01011001011000000000000000100001000011010
00000110001111101011111110101010111111011
00001001111010001000000010101000101011011
10101110101010101110111010101011110011011
01111000000010101010100010101010110011101
10100011101011111010111011101110111111001
00000000111010100000100000000001100011111
11111110100010111110101111101011101010010
10000010111010000010100010001000100011011
10111010100011101111111111111110111110011
10111010001010001000000000001000000111100
10111010110011101110111110111010010011001
10000010111000001000100000001010001011010
11111110110111101111101010111110111101111
