P1
41 41
11111110010101111011111111101111101111111
10000010011100101010000000001001101000001
10111010100010101011101111101010001011101
10111010001010100010100010000011001011101
10111010011000111010101111111010101011101
10000010001100001000001000001000001000001
11111110101010101010101010101010101111111
00000000101110101010000000100110100000000
11101111100100101011101011111010011000100
10100001000110000010001000101010101000000
00111111100000111011111111101010001000101
00011000100000100010000000001011101010011
00010111100111111010111010111110101111010
01010100000010100000100010000100101011101
10000111011010111111111011101001101011111
01000001100010100010000010001100110011010
01101110001010101111101110111000111001011
00101001111010001010001000101000111101011
01000111011110101011101111101010111110100
10110100011000101010001010001000100010001
00010110000011101011101010111011101111011
11110100111010101000000010001110101011101
00111011100010101110111011101000101011011
11100101011000100000101000001010000011010
11111111111011111110101010111110111001000
00000100101010001000100010000010011001010
10010011110110111011101111111010001101011
00111101101000001000100000100001001011010
00010111111110101110111110101010101011011
01001000111000100010100010101010101011011
10110111101011101110101010111111110111011
01011001111000100000101000100000110011101
10011110000111111011111111101110111111001
00000000101000000010000010100011100011111
11111110110010101010111010111011101010010
10000010100010101000001010001010100011011
10111010100110111110111111101110111110011
10111010010010000010001000001000000111100
10111010111010101110101111101110010011001
10000010110000100010100010101000100011010
11111110110111111110101110101110111101111
