P1
41 41
11111110000110101010111011101111101111111
10000010010010000010001000000011101000001
10111010100100111111111110111010001011101
10111010010000000000100000100011101011101
10111010010100111011101111101011101011101
10000010011010100000000010100000001000001
11111110101010101010101010101010101111111
00000000101110100010001000100110000000000
11101111110000101110101011101011011000100
00011101010010001010101000101010101000000
11010011001001111010111110111010001000101
10100101100100000010000000100011101010011
10111110000110111011111011111110101111010
00010001100010101010100010000110100011101
10010011011010101010101110101000101111111
01000001110010101010001000101100010011010
11010110010010101110101110101000111001011
01001001101000000010101000101000111101011
11000110110011101111101011111110111110100
01001100011010100000100000000010101010001
00001010010110101010111110111111101011011
00010101101000101010100000100100000011101
00110010111110101011111111111101101111011
00010000011000001010000000001000000011010
11101011110011101110111111111011111001000
00011101010010000010001010001010011001010
01101010110011111110111011101110001101011
01010001100000001000001010100001001011010
00101011110011101111101010101010101011011
01111100000010101010100010101010101011011
10010010011010111010111010101110110011011
01100100100010000000100000100010110011101
10110011100011101110101110111010111111001
00000000101000001010001010101001100011111
11111110110010111010101011101111101010010
10000010110010101000101000000000100011011
10111010110011101011101011101110111110011
10111010001000001010001010101000000111100
10111010101011101010101110111110010011001
10000010110010001010101000001010000011010
11111110110110111110101010111011101101111
