P1
41 41
11111110001101101011111011111011101111111
10000010011110101010000000100001101000001
10111010111001101010111010111010001011101
10111010001000001010100010000001101011101
10111010010101101110111110101010101011101
10000010011110001010101000101000101000001
11111110101010101010101010101010101111111
00000000110100000010100010100110000000000
11101111110111101010101111111011011000100
01010001000000001010000000001010101000000
11111011010110111110111011101010011000101
01101100011110101000001000101011101010011
10110010100111101111111110111010111011010
00111001111010000010000000000110000011101
11101111100010111110111011101000101111111
01010101001000101010001010001100110011010
10111011100111101011101110111000111001011
11101100000000100010001000001000111101011
10000011100011111010111110111010111110100
01111101010010001000100000001010100010001
11110011101010101010101111111111101111011
10110101111000100010101000100100100011101
11011010100111111111111011111001101011011
01000000011000001010000000001000000011010
11010111011111101010111011111110111001000
00111100100000001010100000000010011001010
00011111011111101011101011111010001101011
00111100011000001010001000100011001011010
01000110101111101011101011101110101011011
00011000100010101000101000100000101011011
10110011001010101011101111111110110111011
01011101000010000010001000100010010011101
10101111101010101010101011111011111111001
00000000110000101000101000000011100011111
11111110111011111011111110111011101010010
10000010111000101000000010001010100011011
10111010110010101110111010111110111110011
10111010000010100000001000000010000111100
10111010100010111111111010111110010011001
10000010101010001000001010001000000011010
11111110100110101010111010111011111101111
