P1
41 41
11111110000110101010101010111011101111111
10000010001000101010100000000001101000001
10111010100011111110111110111010001011101
10111010000000000010001000001011101011101
10111010010011111011101111101011101011101
10000010000110001010000010000000001000001
11111110101010101010101010101010101111111
00000000100010100010100000100110100000000
11101111110001101110111011101010011000100
00101000001100100010100010001010101000000
00111111001001111011101110111110001000101
00101100100110001010101000101001101010011
10100110110110111010111011101010101011010
10001000100000101000001010001110001011101
01110110011110101011111010101000101011111
10110101101000100010001010100100010011010
01000010011111111010101011101001111001011
10111000001000000010100000100000111101011
11110011100111101111111011111110101110100
00001001101000001010000000100010100010001
11011011110111101011111011111011111011011
00110001001000101000000010001110101011101
10001111011010101111101010111000101111011
10110001110010100000001010100010000011010
01110110001110111010111010101110111001000
10000000101000000010001000000010011001010
11001010110111111110111011101010011101011
00110101100000000000100000101011000011010
11011010001010111110111111111110111111011
01001100010010001000001000000010100011011
10111110001110111011101011101110110011011
01101000001000001010101000101000010011101
10101111110110111110101011111111111111001
00000000100000100000001010100001100011111
11111110110010111011101010101111101010010
10000010110010100000100000001010100011011
10111010111110111011101111101010111110011
10111010001000100010000010101000000111100
10111010100110111011101010111010010011001
10000010111000001000101010001010100011010
11111110101011111010111010111110111101111
