P1
41 41
11111110010010111010101110101111101111111
10000010010000001010000000000001101000001
10111010110010111111101110111110001011101
10111010000000100010101000000001001011101
10111010011111111010111011111011101011101
10000010000010000000000010001000001000001
11111110101010101010101010101010101111111
00000000110000001010100010000110100000000
11101111111110111110101111101011011000100
00111001010100001000001010001010101000000
01011011010100111010111010101010011000101
00101001101110001010100000101001100010011
11000011101010101110101010101010101111010
00111000011000101010001010101110000011101
00111011100011111010111111101001101111111
10110100001000100000000010001100110011010
01010010111010111111101110111000111001011
01010001110010101000000010001000111101011
10110111010110101110101111111110101110100
01011100011010000010101010000010100010001
00111110010010111111111011101111101111011
01010001110000000000000010000110001011101
11010010111111111010111111111001101011011
10010001011000101010000010100010000011010
10010111001110101110111110101010111001000
00001000111000100010000000101000011001010
01100110000010101011101111101010001101011
10101001111010001010100010101011001011010
10101010010010111010101110111110111111011
00001100111010001000100000000000000011011
10101011011110111011111110111011110011011
01101101101010001000100000100010010011101
10010110011011111110101111111110111111001
00000000101000100000001000000001100011111
11111110110011101011111011111111101010010
10000010111000001010100010001000100011011
10111010110110101110101110101110111110011
10111010001000100000100000101010000111100
10111010110110111011111010101010010011001
10000010100000001010000010100000100011010
11111110111011111010111111111010111101111
