P1
41 41
11111110000111101111101010101011101111111
10000010000110000000101010001001101000001
10111010100011101110101011101010001011101
10111010010010100010001010000011001011101
10111010011000101111111111101011101011101
10000010011100001000000000001000001000001
11111110101010101010101010101010101111111
00000000111010000010101000101110000000000
11101111110101101011111110101011011000100
10111101101010101000100010101010101000000
10111011100010101111101010111110011000101
10101100110010001000001010100011100010011
00011110101011101010111010111010111011010
10011000011000101010101000001100100011101
00011010110010101111101110111000101011111
10000101010010101000000000100100110011010
01101111101110101010111011101001111001011
11101100011000001010100010101000111101011
10101010101110101011101010101010101110100
01001101000000101010101000001010101010001
11111110100110111010111110101111111011011
01000101110000001000101000101110101011101
11011110101011101111101110111000101011011
01010000000010000010000010100010000011010
01101111000011111011101110101011111001000
10111000001010100000100000101000011001010
00011010011110101011101111111110001101011
01101100100010001010001010000011000011010
01100111011011111110111010111010111011011
01011100110000100000000000100000100011011
10001111101011111110111011111110110011011
01101001110000100000001010000000110011101
10000010100011111111111011101110111111001
00000000111000000010100000101001100011111
11111110101110111010101111111111101010010
10000010110000101000001000000010100011011
10111010100010101111101011101110111110011
10111010011010000000100000101010000111100
10111010110110111111111011111010010011001
10000010110000100000100000101000101011010
11111110110010111011111110101011111101111
