P1
41 41
11111110000111101110111010111111101111111
10000010000100000000100000001011101000001
10111010110101111110111110111010001011101
10111010000010001010000000000011101011101
10111010001000111011101111111010101011101
10000010000100100000000000101000101000001
11111110101010101010101010101010101111111
00000000110000000000100000001110100000000
11101111100001101111101110101010011000100
10100000101000001000100010100010101000000
11010011100111101011111110101110001000101
10111100101000001000000010100011101010011
10001111000111101011111010111110111111010
10100101100000100010101010100110000011101
10111111001110101010101111101000101011111
10001000001000101000100010100100110011010
00110110000111101110111010111000111001011
10001000110000000010100000100000111101011
11011111000110111110111110101110111110100
00100101001010100010001010001010101010001
11011110100011101010101010111011101111011
10000100011010001010101000100100101011101
11111010011011101110111010111000101011011
11011101011010000000000010100010000011010
00011011010011111111101111101011111001000
11000001000000100000100010001010011001010
00011111001011101110101111111010001101011
01101100000000100010100000000001001011010
10100110111110111110101111101110101011011
01101100110000001010001000101000100011011
10010110001011101010111011111110110011011
01011101000010101000101010100010110011101
10101111110010101111101010101110111111001
00000000110000101010100010001011100011111
11111110110011111010101110111011101010010
10000010101000001010100010000000100011011
10111010110110101010101110111110111110011
10111010010000100000001010101010000111100
10111010100111101111101010101010010011001
10000010100000101010001010100000001011010
11111110111011111011101010101110111101111
