P1
41 41
11111110010000101111101110111111101111111
10000010000000100010000010100001101000001
10111010101100111110111111101110001011101
10111010010010000000000010001011101011101
10111010000110111011111111101010101011101
10000010011100100010100000000000001000001
11111110101010101010101010101010101111111
00000000111010101010000000101110100000000
11101111110100101110111111101011011000100
01001001110000000000100000101010101000000
10100111010110111110101110111010011000101
10111001111010101000101000100001100010011
10110111110010101110111110101110101111010
10110100100000100000000000100110000011101
01010011101111101011111110111001101011111
00011001101000001010001010000100010011010
11010111001111101010101010101000111001011
10111001011000001000101000101000111101011
10000010001011111011101011111110111110100
10011000110010101010001000100010101010001
01010111010110101111111111111011101011011
00110101010010000000000010001100100011101
10110110101011101011111010101101101111011
10101000000000101010001000100010100011010
11000110010011111110101011111010111001000
01100101001010100010101010000000011001010
11010110010010101111101011111010011101011
11001100111000101000000010101011000011010
01001111110110101010111110101010111011011
00000001101000000010100000001000001011011
10100011110111101011101110111011110011011
01010100100000001000101000100000110011101
10101011111010101011101010111011111111001
00000000100010101000101010000001100011111
11111110100110101111111011101111101010010
10000010111010100010001010000010100011011
10111010100010111110111111111010111110011
10111010010000100000101000101000000111100
10111010111110111010101011101110010011001
10000010111000001010000010000000001011010
11111110101110101011111010111111101101111
