P1
41 41
11111110011001101010111010111011101111111
10000010010010001010100010100011101000001
10111010110101111010101110111010001011101
10111010000110001010100010001001001011101
10111010000110101011101111101011101011101
10000010001010100000100010101000101000001
11111110101010101010101010101010101111111
00000000111010001000100000101110100000000
11101111111011111110111011111010011000100
11010001001110000010000010001010101000000
00001111111111111010111010101010011000101
10111100100010101010001000100011101010011
11000110000011101010111111101010101111010
00000100101010001010100010101100001011101
11101111001010111010101110111000101011111
11010001111000000000000000001100010011010
11111010111011101110101011111000111001011
00000101001010001010101010100000111101011
11101010101011101011101110111010101110100
01110001110010001010001000000010100010001
11010110011110111011111010111011111011011
00010000111000001000001010101110100011101
10011010111111101011101111101100101111011
10110000101000000000100000000000000011010
11010010101110111010111011101111111001000
11000101001000101010101010000010011001010
00000011011011101011101110101010011101011
11110100011010000010001010101001000011010
01000110000110111011101011101110111111011
01001000000000001010000000100010001011011
10000111111110111110111111111110110011011
01011000010000000000100000000000010011101
10110010111011111011111111101111111111001
00000000110000100010000010000001100011111
11111110100011111010101010101011101010010
10000010100010000010101010101010100011011
10111010101010111010111110101010111110011
10111010010010001010000010101010000111100
10111010100111101110111010101110010011001
10000010111000000000101000101010101011010
11111110101111111011101011101010111101111
