P1
41 41
11111110010101101110111011101011101111111
10000010001100000010101010001011101000001
10111010100001111011101011101010001011101
10111010010010100000100000001011001011101
10111010000110101111111110111011101011101
10000010001000001000100000100000001000001
11111110101010101010101010101010101111111
00000000100000000000100000001110000000000
11101111101000111110101011111011011000100
11011000101010101000001010000010101000000
00100110101010101011101110111110001000101
01001101111010100000101000101001100010011
11010110100110111110101011101110111011010
00011101100000100000100000100100101011101
11000010100010111111101111111000101011111
01111100101010000010001000000100110011010
10110111111111101110111011111001111001011
01110101011010101010001000100000111101011
10000111100010101011101110101110101110100
01000101000000000010101000101000100010001
11101010011011111110111010101011101111011
11000101000000001000100010101110100011101
00101010110010111011101110101001101011011
10111100101010100010000010001010000011010
01011010111110101110111110111010111001000
00100001000000001000100010100010011001010
10111111011010111011111010101110001101011
10111100001010100010000010101001001011010
11010010110011101010101110101010101011011
01100001000010001000101010101010000011011
10010010011111111111101010101111110011011
01011001011000001000000010001000110011101
10110011101110101110101011101011111111001
00000000101000100010101000100011100011111
11111110111110111010111110111011101010010
10000010111000101000100000101010100011011
10111010101011101010111010101110111110011
10111010001010001010001010101000000111100
10111010100110101011101110101110010011001
10000010110010100010001010001010000011010
11111110111010101111111011101011111101111
