P1
41 41
11111110010000101010111011101111101111111
10000010010010100000101000101001101000001
10111010101001101111101011101110001011101
10111010001000000010100000100011101011101
10111010011010111010111110101010101011101
10000010000100100000100000101000101000001
11111110101010101010101010101010101111111
00000000111000000000001000000110100000000
11101111101000101111111110111010011000100
11101100100110101000000010001010101000000
11010110100010101011111010101110001000101
01101101111010101010000000100011100010011
00011111010110101111101011101110101011010
11110001000000100000101010101110001011101
11110011100010101111111110111001101111111
01110001111010101000100000000100110011010
00110111111110101010111111101000111001011
00011001010000100010100000101000111101011
11101110100110111011101110111010111110100
11111100000000001010000010100000100010001
01010110110011101011101110111011101011011
10011001011000101010000010101110101011101
10101010100011111111101111101001101111011
00111100100010000000001010000010000011010
00110011110010111011101011111011111001000
01001101100000001010000000000010011001010
01010010100011101011111110111110001101011
01111100100000101000101010000001001011010
01011111010011101011101011101110101011011
00011100010010101010000000101000101011011
10101110000010111111101111101011110111011
01100001000000000000000010100000110011101
10111011111011111110101110101110111111001
00000000110000100010101000001001100011111
11111110111011101011101110111111101010010
10000010110000101010101000000000100011011
10111010111111101010111011111010111110011
10111010010010001000000010000000000111100
10111010110010101011101011111110010011001
10000010100000101010001000101000100011010
11111110101110111110111111101011101101111
