P1
41 41
11111110000000101011101011111111101111111
10000010010010000000100010000001101000001
10111010111100111011111110101010001011101
10111010010100101000100010101011101011101
10111010011101101011101110111010101011101
10000010001010100000001000000000001000001
11111110101010101010101010101010101111111
00000000110110001000001010100110000000000
11101111101001111011101111101010011000100
01110101011000000010100000100010101000000
10110010010010101110111011101110001000101
00111000010000100000100010001001100010011
01101010101110111111111110101110101111010
11000101001010001000000000100110100011101
11011111001110101110111111101001101011111
00001001011010100010101000001100110011010
10011010110011101111101010101001111001011
11111100001010000010001010100000111101011
01111010100010111010111010111010101110100
10011001100000100010101010001010101010001
00010011111110101110101111111011101011011
10111100100010100010101010001100101011101
01001011101010111110101010111101101011011
11010100001000100000101000000010000011010
10110011100110101010101011111010111001000
10100100011000101010100000101010011001010
10011110111011101111101110101010011101011
11111101101010000000001000001001001011010
01011011111011111011111111111110111011011
00101100100000000010000010000000000011011
10011010000011101111111011111010110111011
01010001010000101000001000001010010011101
10011110101011101010111011111111111111001
00000000110000100010000000001001100011111
11111110110110111011111111111011101010010
10000010110000001010001010001000100011011
10111010100111101010101011101110111110011
10111010011010001010100000001000000111100
10111010101010111110101011111010010011001
10000010101010101010101000000000001011010
11111110101010101011111111101110111101111
