P1
41 41
11111110011110101010111011101111101111111
10000010010000000010001000101011101000001
10111010101011101110111010111010001011101
10111010000110001000100010001001001011101
10111010011100111110101010101011101011101
10000010011000000010001010101000001000001
11111110101010101010101010101010101111111
00000000111100101010001010000110000000000
11101111111011101011101011111011011000100
11111100101100101010001000000010101000000
01000110010110101111101010101110011000101
00000000110000101000100010101011101010011
00001011101111101011101010111010111011010
01001001110010000010001010101110001011101
01010110001010101111111010101000101011111
10100000000010101010000010100100110011010
11101010111011101011101111101000111001011
10011001100000100010100010001000111101011
01001111001010101110111110111110111110100
01010000101010000000000000100000100010001
00100010111110111010111011111111101011011
11011001101000100010001010001100101011101
10110110000010111011111010111000101011011
00100000111010100010001000101010000011010
01110010001011111111101010101010111001000
10000100100000001000001010100010011001010
01000111100111101110101011111010001101011
01100100001000000010100010000011000011010
00101010001111101011111110111110111011011
00011100111010001010100010000000100011011
10000110000011101110111011111011110111011
01001101001000100000000010000010010011101
10010110101110111011111011101111111111001
00000000110000100000101000100001100011111
11111110111011111010101111111111101010010
10000010101000100010101000100010100011011
10111010111110111110101010101110111110011
10111010011010000010101010001010000111100
10111010110011111010101110101010010011001
10000010110010001000000010100010100011010
11111110101010111110111010101011111101111
