P1
41 41
11111110011100101011101110111011101111111
10000010011010101000001000001011101000001
10111010110010101110111010101010001011101
10111010010000001000100010101011001011101
10111010001011111110111010101011101011101
10000010010100001000001010100000001000001
11111110101010101010101010101010101111111
00000000111000100010000000100110100000000
11101111101100111111111011111011011000100
01110101010100100000000010101010101000000
00100111111110101110111010101010011000101
00011001101010001000101010001011101010011
01111111100010111010101011101010101111010
10000100000010001010100010000100000011101
01111011000110101011101111101001101111111
10011100000000101000100010100100010011010
00101110101010111111101010101000111001011
01110000111010100010001000100000111101011
01100111000011111010101010101010101110100
11001001010000100010101010001010100010001
00101011100010101111101110101011111111011
11001001111010100010100010101110000011101
11100011011011111010111010101100101111011
10000001010010000000001010100010000011010
10011011000010111110101111101111111001000
10110000100010100000100010000010011001010
01110111010110111011101111101110001101011
10111000011000101010001000000011000011010
01110010000111101011111011111110101011011
00110000010000000000100000000000001011011
10110110011010111011101011111110110011011
01010100100010100000101000100000110011101
10100011000110101111111110111110111111001
00000000111000101000000010001001100011111
11111110111010111111111010111111101010010
10000010101010101000100000100010100011011
10111010100010101010101011101110111110011
10111010000010101010001010000010000111100
10111010110010101010111011111010010011001
10000010100010100010001000100000100011010
11111110110011111011101111101010111101111
