P1
41 41
11111110001000101110101010101111101111111
10000010011110101010001010101011101000001
10111010111010101010111110101010001011101
10111010000010100010000000101001101011101
10111010010110101110111011111010101011101
10000010000000100000101000000000001000001
11111110101010101010101010101010101111111
00000000101100100010000000000110000000000
11101111110001101111101110111010011000100
01010000010110101010001010000010101000000
11100011110010111010111010111010001000101
01100000001010000000101000100011101010011
11001110111111111011101011111110111011010
11010000101000000010001000001110001011101
11101011111010111110111011101000101011111
10111001100010100010000000101100110011010
00100111100110101111101110111000111001011
00011100110000000010100010100000111101011
11010010000110101110101110111010101110100
01101001111000101000100010100010101010001
11111111111110101010101011101111111011011
00110000001000100010101000100100100011101
00011010101111111110111110111001101111011
10000001101000001010001000100010000011010
01110111001011101011101011101111111001000
01100000110010001010001010001000011001010
01000110111110101011101110111010011101011
01100101000000100000001010001001000011010
01010011001110111110111010111010101111011
00111101100000000010100010100010100011011
10101110100111101111101010111010110111011
01101100000000101010101010100010110011101
10101011101110101010101111101110111111001
00000000110000100000000000001001100011111
11111110111110111010101010111111101010010
10000010111000000010101010100010100011011
10111010101111111111101111111010111110011
10111010010000000000000000001010000111100
10111010100111111111101110101010010011001
10000010111000000010100010101000101011010
11111110110111101110111110111110111101111
