P1
41 41
11111110011100101011101111111011101111111
10000010000110001010100000000001101000001
10111010100111101010111111111010001011101
10111010010110001000100000100011101011101
10111010000011101010111010101010101011101
10000010010000100010100010001000101000001
11111110101010101010101010101010101111111
00000000111000001000000010100110100000000
11101111101011101011101110111011011000100
11100101011010100010100010101010101000000
11001010100010111010101111101010011000101
10101100010110000000100010001011101010011
00100111000011101110111110101010101011010
00101100111010000010000000100100001011101
11100010100010101010101011101001101011111
01101001111010101010101000101100010011010
11101111001110101111101110111000111001011
00010000100000100000100010001000111101011
11010110101110111011101110111110111110100
00000001010000100010101010101000101010001
00010010000110111110111010101111111011011
01000001011010100000000000100110001011101
01011011001010111111111111101100101011011
01000101011000001000001010000000000011010
00010110110110101110101011111111111001000
10010000011000100010100000000000011001010
10101010100011101111111011111110001101011
01001001111000100000001000001001001011010
10110110000011111110111111101010101111011
01011000110000000010000000001000000011011
10000110001011111111101111111111110011011
01110001011000100010000000101010110011101
10000010110111101111111011101010111111001
00000000101000100000001010101001100011111
11111110100110101011101010101011101010010
10000010101010001010001000100000100011011
10111010110011101110111011101110111110011
10111010010000001000001010001000000111100
10111010100110111111101110111110010011001
10000010101010001010001000001000100011010
11111110111010101010111110101010101101111
