P1
41 41
11111110001010111011111011111111101111111
10000010010110001000100000000011101000001
10111010110101101110101110111110001011101
10111010010000001000001000001001001011101
10111010011011101111111110111011101011101
10000010011000101000001010001000001000001
11111110101010101010101010101010101111111
00000000101110001000101010000110100000000
11101111110000101010101010101010011000100
10111100011100101010100000101010101000000
10110010110101101011111110111010001000101
00101100111110000010100010001011101010011
00001111111111111110101010111010101011010
01001000100010001000101010001110101011101
00011010000111101110111011101000101011111
00110101100000100010100000000100010011010
10100110100011101110111011111000111001011
10001101001000000000100010001000111101011
00011110111110111110111010111110101110100
10010000111000101000000000100010100010001
10110010110110101010111110111011111011011
10110101111010101010101000100110000011101
01110011100011101010101010101101101011011
01001101001000100010101010001000000011010
10011111100011111010101111111110111001000
10111001011000100010000000100000011001010
10100010111110101110111110101110001101011
10100100001000001000101010001001001011010
00001010100011111011101010101010101011011
01011001011000101010001000100010000011011
10011110111110101010111011111010110111011
01011100110010100010101010100010110011101
10010010011010101010101010101011111111001
00000000100010101010001010001001100011111
11111110100011111011101111111111101010010
10000010111000100010001000001000100011011
10111010111110111110111111101110111110011
10111010011000000000000000000000000111100
10111010110110101010111110111110010011001
10000010110000101010000010000010000011010
11111110101110101011111110111011101101111
