P1
41 41
11111110011001101110101110101111101111111
10000010010100001010101010100001101000001
10111010110010111011111010101110001011101
10111010010000000000101000100011101011101
10111010011110101110101010111011101011101
10000010011010101000001010100000001000001
11111110101010101010101010101010101111111
00000000111110000010000000000110000000000
11101111111100111011101111111010011000100
01001001101100001010001000001010101000000
10101011001000101010111111101110001000101
00011100100100101010100000000011100010011
11100110001111101010111110111010111011010
01000001010010001010001000101100001011101
11111111010010101111101111101001101011111
01001000110010101000001000100100010011010
00010111000010101111101010111000111001011
00101001110010101000001010000000111101011
11110011011110101011111011111010111110100
10111001001000101010100010100010100010001
01110010010011101010101110111111111011011
00010001001010001000100000101110100011101
10001110100111101010101110101000101011011
01010001001010101010101010001000100011010
10100111101010101111101011101010111001000
10010001000000100000101010101010011001010
01111011101011111011101010101010001101011
11100001010000100000101000000011001011010
00010110100110111110101010111110111011011
01100100010010001000001010000000100011011
10100010110010111111101111111111110111011
01101101110000101010000010000000010011101
10111011011110101010101111111011111111001
00000000100000101000100010000001100011111
11111110101011101110101010111111101010010
10000010100010100000101010100010100011011
10111010100010101010111010111010111110011
10111010000010101010001000000000000111100
10111010111010101111111011111110010011001
10000010110000100010000000001000001011010
11111110100011101110111110111110101101111
