P1
41 41
11111110000100111010111011101011101111111
10000010000000000010001010001011101000001
10111010111111101110111110111110001011101
10111010010100001000001010000011101011101
10111010011110101110111011101010101011101
10000010001000101010100000000000101000001
11111110101010101010101010101010101111111
00000000110100000010101010101110000000000
11101111110101111110101011111010011000100
10111001011010001000000010100010101000000
11010010011110101111101110101010011000101
00110001111110101000000000101011101010011
01010110011010111111111111111010101011010
11001101011010100000100000100100101011101
10001010111110111011101111101001101111111
10010100011000000000101000000100010011010
00011110001111101011101110101001111001011
11110100101000101000001000101000111101011
01111011011010101111101110111110101110100
10001101110010100000100010001000100010001
11100010111011111011101111101111101011011
11110001010000000000101000101100101011101
10101110101111111110101011101001101011011
01110000001000000000100000001000100011010
01111011111110111011111010111011111001000
01001101000010001010000010100010011001010
01100111111011101111111110111010011101011
01010100011000000000100000000011000011010
10011110110011101111111110111010111011011
01011000001010001000100010001010000011011
10010111000011111011111011111011110111011
01111100111000000010001000100010010011101
10100111101011101110111110111011111111001
00000000111010100000001010000011100011111
11111110111110111010101011101111101010010
10000010101010100010101010000000100011011
10111010111010101110101011101110111110011
10111010011000000010101000000010000111100
10111010100011101111111110111110010011001
10000010101010001000000010100000101011010
11111110100010111011101111111010111101111
