P1
41 41
11111110011110101111101010101011101111111
10000010011000100000000000000011101000001
10111010100000101110111110101010001011101
10111010011010100010000010101011101011101
10111010000001101010111111111011101011101
10000010001100101010100000000000101000001
11111110101010101010101010101010101111111
00000000100100001010100010100110100000000
11101111110111101010101110101010011000100
11110000111010001000001000001010101000000
01010010100000111111101010111010001000101
00111101111110001000000010001011101010011
11111010110011101111101111111010111011010
10101100001000100010001000100100001011101
11000110011110111011101110101000101111111
00011001011000101000100010001100110011010
11111010010011101011111011111001111001011
10011100010000100010000010000000111101011
10010011100011101111101110101110101110100
01100001110000101010100010100000100010001
11000111101110101010101111111011101011011
11101000010000100000000000001110001011101
11100111110111101011101110111101101011011
11010100001010101000100010000010000011010
11000111100010111011101011111110111001000
10011001111000100010101000100000011001010
11001110011011111010111110111110001101011
00001000111000001010100000001011000011010
00100010110111101010111111111010111011011
01111001101000001000001000101010100011011
10011110101111101010111011101010110011011
01110000000000101010000010100010010011101
10100011010010101110111010101110111111001
00000000111010100000101000000011100011111
11111110111011111110101111111011101010010
10000010100000100000101010101000100011011
10111010110110111111101010101010111110011
10111010011000001010000000001010000111100
10111010100110111010111010111010010011001
10000010110010101000001010000010100011010
11111110111010101011101110111110101101111
