P1
41 41
11111110001001101010101010111111101111111
10000010000010100010001010101001101000001
10111010110100111010111011101110001011101
10111010011100100000000000101001001011101
10111010001110111110111011101010101011101
10000010000010001010101010101000101000001
11111110101010101010101010101010101111111
00000000101010100000000010001110000000000
11101111110111101110111010101011011000100
01011000010100001000100000101010101000000
10000111110101111110101010101010001000101
01101101010010000010101010100011100010011
00010011100110101111101111111110111011010
10000101100010100000000000101100101011101
00101111110010101111101110101001101011111
11100000111010101000001000000100110011010
01101111111011101110111111111000111001011
00100000110010000010100000001000111101011
11011111011010111011101010101110111110100
10000000100010101010001010100000100010001
10100111101111101011101111101111101111011
10001100111000100010001000100100100011101
10001111001011101110111110111100101111011
01010101000000000000000000101010100011010
10010111100011111011101111101011111001000
10011000110010000010100000000010011001010
10001110100110111010101110101110001101011
10101000101010100000101000101011001011010
11100110000010111110101111111010111011011
00011000111000001000100000000010100011011
10111111111010111011101011111010110111011
01110100010010001010001000001010110011101
10110011101011111111111011101110111111001
00000000100000100000000010001001100011111
11111110110011111111111010101111101010010
10000010100000100000100010100010100011011
10111010101010111110111011111010111110011
10111010011010100000101000100000000111100
10111010100011101110101111101110010011001
10000010100010001010001010001000101011010
11111110100011101010111011101111111101111
