P1
41 41
11111110010111101011101011101111101111111
10000010011100100000100000100011101000001
10111010101101101110111011111010001011101
10111010011000100010001010000001001011101
10111010010100101010101010101011101011101
10000010010110001010101010101000001000001
11111110101010101010101010101010101111111
00000000111010000010100000101110100000000
11101111101010111110111010101010011000100
11011100101100001000100010001010101000000
00010010101000111110101111101010011000101
01000001001110001000100010001001100010011
10010010010010101110111011111010101111010
10001001010000100010001010000100101011101
10000110100111101111101111101000101011111
01010001110000000000100000101100110011010
00011110000010111110101011111000111001011
01011001001010000010101000001000111101011
10111010010010111111111110111010101110100
01100100010010100000000010000010101010001
11001110010110111010111010111011111111011
00111001101010001010001010100100001011101
11000111001011101010111011111100101011011
11101001010000000010001010000000100011010
01110111111011111011111011101110111001000
00011000110000100010001010001000011001010
01110010111110111010111110111110011101011
00110101000000001000001000000001000011010
11001110111110101111101010111010111111011
01001001101000100000100010001010001011011
10101110001110111111111110111010110011011
01111100001000100000000000100010110011101
10111111100111101111111011111111111111001
00000000101000101000000000101001100011111
11111110110010101111111110101111101010010
10000010110010101010001000100000100011011
10111010100110101010111111111010111110011
10111010010010100000000000000010000111100
10111010111010101111111011101110010011001
10000010110010001000000010000010000011010
11111110100011111111111011101110111101111
