P1
41 41
11111110010011101011111011111011101111111
10000010011010101010001010101001101000001
10111010100011111011101010101110001011101
10111010010000100000000010101011001011101
10111010000010111110111110101010101011101
10000010000110000000000010000000101000001
11111110101010101010101010101010101111111
00000000100110100010101000100110000000000
11101111101000111011101011111010011000100
01101100000000100000101000100010101000000
00111010101100101111111111111110001000101
00111000100010101010000010001001100010011
01110111100010101011111011101010101011010
11011100111010000010000010000110101011101
00101011111010101111101111101001101011111
10011000001010100010000000101100010011010
00111111001110101110111110111000111001011
11010000010000100000000010100000111101011
01111011001011111111111111101110101110100
00101101001010000010000000100000101010001
11001110110011101111101011111111111011011
11100101111000101000001000000110100011101
01000010100011101011111011101000101111011
01011101011000001000101010001000100011010
11000010100110101010101110111111111001000
11010001000010100010100000000000011001010
11110111001010111111101110111110001101011
00110101110000001000100010101011001011010
10101110111011101010111110101010101011011
01101001000010000010101000100000000011011
10100010100110111010101011101110110111011
01011100001000100010100010001010010011101
10111011001011111111111011101011111111001
00000000100010001010000010001001100011111
11111110100010111011111110111011101010010
10000010100010101000001000001010100011011
10111010100010101011111111111010111110011
10111010010000100000100010000010000111100
10111010110011101011101111101010010011001
10000010110010101010000000101000101011010
11111110111010101110111110111110101101111
