P1
41 41
11111110000111101011101010101011101111111
10000010010010001010101010100001101000001
10111010101011101010111011101010001011101
10111010001010001000100010101011101011101
10111010001000101011101110101010101011101
10000010010000100010000000000000101000001
11111110101010101010101010101010101111111
00000000101100001010100000100110100000000
11101111111000101010101110111010011000100
00010100110110101000100010001010101000000
11000010000101111011111110111110011000101
10011101110110101010100000100001101010011
00111010111011101110101111111110101011010
11100101110000001000000010001100001011101
10110110100110111110101011101001101011111
01100101011000000000101010000100010011010
01011111001111111111111011111001111001011
11011101010000001000001000100000111101011
00010011010010111110111011111110111110100
10100101000010000010000000100010101010001
11000010011111111011111110101011111011011
01101100100000001010100010101110000011101
11101010010110101010101110101100101011011
01111001010000100000001000100000000011010
00011111111011111011101110111110111001000
00100101110000101000100010001000011001010
10100011100010101110111011101010001101011
01001100000010001000100000101001001011010
00011011110010111010111011101110111011011
00010001101010100010100000100000001011011
10001111011010101111101011101111110011011
01101001100010101010001000000000110011101
10100111010011111011101111111110111111001
00000000110000101000100010000011100011111
11111110110011101110101110111111101010010
10000010101000000000100000001010100011011
10111010111010101011101110101010111110011
10111010011010101000101000101010000111100
10111010110010111111101110101010010011001
10000010101010100000001010101000100011010
11111110100010111011111010101011111101111
